# xmcd CD database file
#
# Track frame offsets:
#	150
#	5593
#	17669
#	28129
#	32067
#	38535
#	45615
#	53490
#
# Disc length: 824 seconds
#
# Revision: 0
# Processed by: cddbd v1.5.2PL0 Copyright (c) Steve Scherf et al.
# Submitted via: CDex 1.70beta2
#
DISCID=55033608
DTITLE=ザ・CD - 日本の童謡傑作選　第3巻
DYEAR=1900
DGENRE=Country
TTITLE0=静かな湖畔
TTITLE1=あした
TTITLE2=雨ふりお月さん
TTITLE3=大きな栗の木下で
TTITLE4=アルプス一万尺
TTITLE5=くつが鳴る
TTITLE6=朧月夜
TTITLE7=蛍の光
EXTD=
EXTT0=
EXTT1=
EXTT2=
EXTT3=
EXTT4=
EXTT5=
EXTT6=
EXTT7=
PLAYORDER=
